<svg width="105" height="104" viewBox="0 0 105 104" fill="none" xmlns="http://www.w3.org/2000/svg">
<g opacity="0.4" filter="url(#filter0_f_33_2868)">
<rect x="16.8003" y="16" width="72" height="72" rx="36" fill="url(#paint0_linear_33_2868)"/>
<path d="M58.0405 62.75H47.5605C44.7605 62.75 42.9805 61.08 42.8205 58.29L42.3005 50.04C42.2205 48.79 42.6505 47.59 43.5105 46.68C44.3605 45.77 45.5605 45.25 46.8005 45.25C47.1205 45.25 47.4305 45.06 47.5805 44.76L48.3005 43.33C48.8905 42.16 50.3705 41.25 51.6605 41.25H53.9505C55.2405 41.25 56.7105 42.16 57.3005 43.32L58.0205 44.78C58.1705 45.06 58.4705 45.25 58.8005 45.25C60.0405 45.25 61.2405 45.77 62.0905 46.68C62.9505 47.6 63.3805 48.79 63.3005 50.04L62.7805 58.3C62.6005 61.13 60.8705 62.75 58.0405 62.75ZM51.6605 42.75C50.9205 42.75 49.9805 43.33 49.6405 44L48.9205 45.44C48.5005 46.25 47.6905 46.75 46.8005 46.75C45.9605 46.75 45.1805 47.09 44.6005 47.7C44.0305 48.31 43.7405 49.11 43.8005 49.94L44.3205 58.2C44.4405 60.22 45.5305 61.25 47.5605 61.25H58.0405C60.0605 61.25 61.1505 60.22 61.2805 58.2L61.8005 49.94C61.8505 49.11 61.5705 48.31 61.0005 47.7C60.4205 47.09 59.6405 46.75 58.8005 46.75C57.9105 46.75 57.1005 46.25 56.6805 45.46L55.9505 44C55.6205 43.34 54.6805 42.76 53.9405 42.76H51.6605V42.75Z" fill="white"/>
<path d="M54.3003 48.75H51.3003C50.8903 48.75 50.5503 48.41 50.5503 48C50.5503 47.59 50.8903 47.25 51.3003 47.25H54.3003C54.7103 47.25 55.0503 47.59 55.0503 48C55.0503 48.41 54.7103 48.75 54.3003 48.75Z" fill="white"/>
<path d="M52.8003 58.75C50.5903 58.75 48.8003 56.96 48.8003 54.75C48.8003 52.54 50.5903 50.75 52.8003 50.75C55.0103 50.75 56.8003 52.54 56.8003 54.75C56.8003 56.96 55.0103 58.75 52.8003 58.75ZM52.8003 52.25C51.4203 52.25 50.3003 53.37 50.3003 54.75C50.3003 56.13 51.4203 57.25 52.8003 57.25C54.1803 57.25 55.3003 56.13 55.3003 54.75C55.3003 53.37 54.1803 52.25 52.8003 52.25Z" fill="white"/>
</g>
<rect x="16.8003" y="16" width="72" height="72" rx="36" fill="url(#paint1_linear_33_2868)"/>
<path d="M58.0405 62.75H47.5605C44.7605 62.75 42.9805 61.08 42.8205 58.29L42.3005 50.04C42.2205 48.79 42.6505 47.59 43.5105 46.68C44.3605 45.77 45.5605 45.25 46.8005 45.25C47.1205 45.25 47.4305 45.06 47.5805 44.76L48.3005 43.33C48.8905 42.16 50.3705 41.25 51.6605 41.25H53.9505C55.2405 41.25 56.7105 42.16 57.3005 43.32L58.0205 44.78C58.1705 45.06 58.4705 45.25 58.8005 45.25C60.0405 45.25 61.2405 45.77 62.0905 46.68C62.9505 47.6 63.3805 48.79 63.3005 50.04L62.7805 58.3C62.6005 61.13 60.8705 62.75 58.0405 62.75ZM51.6605 42.75C50.9205 42.75 49.9805 43.33 49.6405 44L48.9205 45.44C48.5005 46.25 47.6905 46.75 46.8005 46.75C45.9605 46.75 45.1805 47.09 44.6005 47.7C44.0305 48.31 43.7405 49.11 43.8005 49.94L44.3205 58.2C44.4405 60.22 45.5305 61.25 47.5605 61.25H58.0405C60.0605 61.25 61.1505 60.22 61.2805 58.2L61.8005 49.94C61.8505 49.11 61.5705 48.31 61.0005 47.7C60.4205 47.09 59.6405 46.75 58.8005 46.75C57.9105 46.75 57.1005 46.25 56.6805 45.46L55.9505 44C55.6205 43.34 54.6805 42.76 53.9405 42.76H51.6605V42.75Z" fill="white"/>
<path d="M54.3003 48.75H51.3003C50.8903 48.75 50.5503 48.41 50.5503 48C50.5503 47.59 50.8903 47.25 51.3003 47.25H54.3003C54.7103 47.25 55.0503 47.59 55.0503 48C55.0503 48.41 54.7103 48.75 54.3003 48.75Z" fill="white"/>
<path d="M52.8003 58.75C50.5903 58.75 48.8003 56.96 48.8003 54.75C48.8003 52.54 50.5903 50.75 52.8003 50.75C55.0103 50.75 56.8003 52.54 56.8003 54.75C56.8003 56.96 55.0103 58.75 52.8003 58.75ZM52.8003 52.25C51.4203 52.25 50.3003 53.37 50.3003 54.75C50.3003 56.13 51.4203 57.25 52.8003 57.25C54.1803 57.25 55.3003 56.13 55.3003 54.75C55.3003 53.37 54.1803 52.25 52.8003 52.25Z" fill="white"/>
<defs>
<filter id="filter0_f_33_2868" x="0.800293" y="0" width="104" height="104" filterUnits="userSpaceOnUse" color-interpolation-filters="sRGB">
<feFlood flood-opacity="0" result="BackgroundImageFix"/>
<feBlend mode="normal" in="SourceGraphic" in2="BackgroundImageFix" result="shape"/>
<feGaussianBlur stdDeviation="8" result="effect1_foregroundBlur_33_2868"/>
</filter>
<linearGradient id="paint0_linear_33_2868" x1="16.8003" y1="52" x2="88.8003" y2="52" gradientUnits="userSpaceOnUse">
<stop stop-color="#2367FF"/>
<stop offset="1" stop-color="#55C7FE"/>
</linearGradient>
<linearGradient id="paint1_linear_33_2868" x1="16.8003" y1="52" x2="88.8003" y2="52" gradientUnits="userSpaceOnUse">
<stop stop-color="#2367FF"/>
<stop offset="1" stop-color="#55C7FE"/>
</linearGradient>
</defs>
</svg>
