<svg width="25" height="25" viewBox="0 0 25 25" fill="none" xmlns="http://www.w3.org/2000/svg">
<path fill-rule="evenodd" clip-rule="evenodd" d="M2.59961 6.5C2.59961 4.61438 2.59961 3.67157 3.1854 3.08579C3.77118 2.5 4.71399 2.5 6.59961 2.5H18.5996C20.4852 2.5 21.428 2.5 22.0138 3.08579C22.5996 3.67157 22.5996 4.61438 22.5996 6.5V18.5C22.5996 20.3856 22.5996 21.3284 22.0138 21.9142C21.428 22.5 20.4852 22.5 18.5996 22.5H6.59961C4.71399 22.5 3.77118 22.5 3.1854 21.9142C2.59961 21.3284 2.59961 20.3856 2.59961 18.5V6.5ZM4.59961 7.5C4.59961 6.94772 5.04732 6.5 5.59961 6.5C6.15189 6.5 6.59961 6.94772 6.59961 7.5C6.59961 8.05228 6.15189 8.5 5.59961 8.5C5.04732 8.5 4.59961 8.05228 4.59961 7.5ZM5.59961 11.5C5.04732 11.5 4.59961 11.9477 4.59961 12.5C4.59961 13.0523 5.04732 13.5 5.59961 13.5C6.15189 13.5 6.59961 13.0523 6.59961 12.5C6.59961 11.9477 6.15189 11.5 5.59961 11.5ZM4.59961 17.5C4.59961 16.9477 5.04732 16.5 5.59961 16.5C6.15189 16.5 6.59961 16.9477 6.59961 17.5C6.59961 18.0523 6.15189 18.5 5.59961 18.5C5.04732 18.5 4.59961 18.0523 4.59961 17.5ZM9.59961 6.5C9.04732 6.5 8.59961 6.94772 8.59961 7.5C8.59961 8.05228 9.04732 8.5 9.59961 8.5H19.5996C20.1519 8.5 20.5996 8.05228 20.5996 7.5C20.5996 6.94772 20.1519 6.5 19.5996 6.5H9.59961ZM8.59961 12.5C8.59961 11.9477 9.04732 11.5 9.59961 11.5H19.5996C20.1519 11.5 20.5996 11.9477 20.5996 12.5C20.5996 13.0523 20.1519 13.5 19.5996 13.5H9.59961C9.04732 13.5 8.59961 13.0523 8.59961 12.5ZM9.59961 16.5C9.04732 16.5 8.59961 16.9477 8.59961 17.5C8.59961 18.0523 9.04732 18.5 9.59961 18.5H19.5996C20.1519 18.5 20.5996 18.0523 20.5996 17.5C20.5996 16.9477 20.1519 16.5 19.5996 16.5H9.59961Z" fill="#151223"/>
</svg>
