<svg width="25" height="25" viewBox="0 0 25 25" fill="none" xmlns="http://www.w3.org/2000/svg">
<path d="M18.5898 23.25H7.0098C4.2698 23.25 2.0498 21.02 2.0498 18.28V10.87C2.0498 9.51 2.8898 7.8 3.9698 6.96L9.35981 2.76C10.9798 1.5 13.5698 1.44 15.2498 2.62L21.4298 6.95C22.6198 7.78 23.5498 9.56 23.5498 11.01V18.29C23.5498 21.02 21.3298 23.25 18.5898 23.25ZM10.2798 3.94L4.8898 8.14C4.1798 8.7 3.5498 9.97 3.5498 10.87V18.28C3.5498 20.19 5.0998 21.75 7.0098 21.75H18.5898C20.4998 21.75 22.0498 20.2 22.0498 18.29V11.01C22.0498 10.05 21.3598 8.72 20.5698 8.18L14.3898 3.85C13.2498 3.05 11.3698 3.09 10.2798 3.94Z" fill="#151223"/>
<path d="M12.7998 19.25C12.3898 19.25 12.0498 18.91 12.0498 18.5V15.5C12.0498 15.09 12.3898 14.75 12.7998 14.75C13.2098 14.75 13.5498 15.09 13.5498 15.5V18.5C13.5498 18.91 13.2098 19.25 12.7998 19.25Z" fill="#151223"/>
</svg>
