<svg width="21" height="21" viewBox="0 0 21 21" fill="none" xmlns="http://www.w3.org/2000/svg">
<path d="M18.84 5.32L13.08 1.29C11.51 0.189999 9.10004 0.249999 7.59004 1.42L2.58004 5.33C1.58004 6.11 0.790039 7.71 0.790039 8.97V15.87C0.790039 18.42 2.86004 20.5 5.41004 20.5H16.19C18.74 20.5 20.81 18.43 20.81 15.88V9.1C20.81 7.75 19.94 6.09 18.84 5.32ZM11.55 16.5C11.55 16.91 11.21 17.25 10.8 17.25C10.39 17.25 10.05 16.91 10.05 16.5V13.5C10.05 13.09 10.39 12.75 10.8 12.75C11.21 12.75 11.55 13.09 11.55 13.5V16.5Z" fill="#151223"/>
</svg>
