<svg width="25" height="25" viewBox="0 0 25 25" fill="none" xmlns="http://www.w3.org/2000/svg">
<path d="M8.02994 4.06999C8.20932 3.97215 8.39994 4.12267 8.39994 4.32701V17.8828C8.39994 18.1061 8.24752 18.2949 8.05014 18.3991C8.04337 18.4027 8.03664 18.4063 8.02994 18.41L5.67994 19.75C4.03994 20.69 2.68994 19.91 2.68994 18.01V8.27999C2.68994 7.64999 3.13994 6.86999 3.69994 6.54999L8.02994 4.06999Z" fill="#151223"/>
<path d="M15.1218 6.60227C15.2921 6.68663 15.3999 6.86026 15.3999 7.05034V20.2035C15.3999 20.572 15.0149 20.8139 14.6829 20.6539L10.4329 18.6063C10.2599 18.523 10.1499 18.3479 10.1499 18.1559V4.94558C10.1499 4.57472 10.5395 4.33293 10.8718 4.49751L15.1218 6.60227Z" fill="#151223"/>
<path d="M22.3999 6.99V16.72C22.3999 17.35 21.9499 18.13 21.3899 18.45L17.8985 20.451C17.5652 20.642 17.1499 20.4013 17.1499 20.0172V6.83032C17.1499 6.65081 17.2461 6.48507 17.402 6.39608L19.4099 5.25C21.0499 4.31 22.3999 5.09 22.3999 6.99Z" fill="#151223"/>
</svg>
