<svg width="25" height="25" viewBox="0 0 25 25" fill="none" xmlns="http://www.w3.org/2000/svg">
<path d="M16.0499 21.91C15.6199 21.91 15.1899 21.82 14.8399 21.65L9.58994 19.02C9.28994 18.87 8.69994 18.88 8.40994 19.05L6.04994 20.4C5.02994 20.98 3.97994 21.06 3.18994 20.59C2.38994 20.13 1.93994 19.19 1.93994 18.01V8.29C1.93994 7.38 2.53994 6.35 3.32994 5.9L7.65994 3.42C8.38994 3 9.49994 2.97 10.2499 3.35L15.4999 5.98C15.7999 6.13 16.3799 6.11 16.6799 5.95L19.0299 4.61C20.0499 4.03 21.0999 3.95 21.8899 4.42C22.6899 4.88 23.1399 5.82 23.1399 7V16.73C23.1399 17.64 22.5399 18.67 21.7499 19.12L17.4199 21.6C17.0399 21.8 16.5399 21.91 16.0499 21.91ZM9.03994 17.42C9.46994 17.42 9.89994 17.51 10.2499 17.68L15.4999 20.31C15.7999 20.46 16.3799 20.44 16.6799 20.28L21.0099 17.8C21.3299 17.62 21.6399 17.08 21.6399 16.72V6.99C21.6399 6.36 21.4599 5.89 21.1299 5.71C20.8099 5.53 20.3099 5.6 19.7699 5.91L17.4199 7.25C16.6899 7.67 15.5799 7.7 14.8299 7.32L9.57994 4.69C9.27994 4.54 8.69994 4.56 8.39994 4.72L4.06994 7.2C3.74994 7.38 3.43994 7.92 3.43994 8.29V18.02C3.43994 18.65 3.61994 19.12 3.93994 19.3C4.25994 19.49 4.75994 19.41 5.30994 19.1L7.65994 17.76C8.04994 17.53 8.54994 17.42 9.03994 17.42Z" fill="#151223"/>
<path d="M8.95996 18.25C8.54996 18.25 8.20996 17.91 8.20996 17.5V4.5C8.20996 4.09 8.54996 3.75 8.95996 3.75C9.36996 3.75 9.70996 4.09 9.70996 4.5V17.5C9.70996 17.91 9.36996 18.25 8.95996 18.25Z" fill="#151223"/>
<path d="M16.1299 21.25C15.7199 21.25 15.3799 20.91 15.3799 20.5V7.12C15.3799 6.71 15.7199 6.37 16.1299 6.37C16.5399 6.37 16.8799 6.71 16.8799 7.12V20.5C16.8799 20.91 16.5399 21.25 16.1299 21.25Z" fill="#151223"/>
</svg>
