<svg width="25" height="25" viewBox="0 0 25 25" fill="none" xmlns="http://www.w3.org/2000/svg">
<path d="M12.1997 2.5C9.57971 2.5 7.44971 4.63 7.44971 7.25C7.44971 9.82 9.45971 11.9 12.0797 11.99C12.1597 11.98 12.2397 11.98 12.2997 11.99C12.3197 11.99 12.3297 11.99 12.3497 11.99C12.3597 11.99 12.3597 11.99 12.3697 11.99C14.9297 11.9 16.9397 9.82 16.9497 7.25C16.9497 4.63 14.8197 2.5 12.1997 2.5Z" fill="#151223"/>
<path d="M17.2797 14.65C14.4897 12.79 9.93967 12.79 7.12967 14.65C5.85967 15.5 5.15967 16.65 5.15967 17.88C5.15967 19.11 5.85967 20.25 7.11967 21.09C8.51967 22.03 10.3597 22.5 12.1997 22.5C14.0397 22.5 15.8797 22.03 17.2797 21.09C18.5397 20.24 19.2397 19.1 19.2397 17.86C19.2297 16.63 18.5397 15.49 17.2797 14.65Z" fill="#151223"/>
</svg>
