<svg width="25" height="25" viewBox="0 0 25 25" fill="none" xmlns="http://www.w3.org/2000/svg">
<path d="M12.3593 12.12C12.3293 12.12 12.3093 12.12 12.2793 12.12C12.2293 12.11 12.1593 12.11 12.0993 12.12C9.19928 12.03 7.00928 9.75 7.00928 6.94C7.00928 4.08 9.33928 1.75 12.1993 1.75C15.0593 1.75 17.3893 4.08 17.3893 6.94C17.3793 9.75 15.1793 12.03 12.3893 12.12C12.3793 12.12 12.3693 12.12 12.3593 12.12ZM12.1993 3.25C10.1693 3.25 8.50928 4.91 8.50928 6.94C8.50928 8.94 10.0693 10.55 12.0593 10.62C12.1093 10.61 12.2493 10.61 12.3793 10.62C14.3393 10.53 15.8793 8.92 15.8893 6.94C15.8893 4.91 14.2293 3.25 12.1993 3.25Z" fill="#151223"/>
<path d="M12.3693 23.05C10.4093 23.05 8.43932 22.55 6.94932 21.55C5.55932 20.63 4.79932 19.37 4.79932 18C4.79932 16.63 5.55932 15.36 6.94932 14.43C9.94932 12.44 14.8093 12.44 17.7893 14.43C19.1693 15.35 19.9393 16.61 19.9393 17.98C19.9393 19.35 19.1793 20.62 17.7893 21.55C16.2893 22.55 14.3293 23.05 12.3693 23.05ZM7.77932 15.69C6.81932 16.33 6.29932 17.15 6.29932 18.01C6.29932 18.86 6.82932 19.68 7.77932 20.31C10.2693 21.98 14.4693 21.98 16.9593 20.31C17.9193 19.67 18.4393 18.85 18.4393 17.99C18.4393 17.14 17.9093 16.32 16.9593 15.69C14.4693 14.03 10.2693 14.03 7.77932 15.69Z" fill="#151223"/>
</svg>
